# Tiled2Unity generated file. Do not modify by hand.
# Wavefront file for 'Map_mesh_0001.obj'

# Vertices (Count = 656)
v -464 -48 0
v -480 -48 0
v -480 -32 0
v -464 -32 0
v -480 -48 0
v -496 -48 0
v -496 -32 0
v -480 -32 0
v -496 -48 0
v -512 -48 0
v -512 -32 0
v -496 -32 0
v -512 -48 0
v -528 -48 0
v -528 -32 0
v -512 -32 0
v -1168 -48 0
v -1184 -48 0
v -1184 -32 0
v -1168 -32 0
v -1184 -48 0
v -1200 -48 0
v -1200 -32 0
v -1184 -32 0
v -464 -64 0
v -480 -64 0
v -480 -48 0
v -464 -48 0
v -480 -64 0
v -496 -64 0
v -496 -48 0
v -480 -48 0
v -496 -64 0
v -512 -64 0
v -512 -48 0
v -496 -48 0
v -512 -64 0
v -528 -64 0
v -528 -48 0
v -512 -48 0
v -1168 -64 0
v -1184 -64 0
v -1184 -48 0
v -1168 -48 0
v -1184 -64 0
v -1200 -64 0
v -1200 -48 0
v -1184 -48 0
v -464 -80 0
v -480 -80 0
v -480 -64 0
v -464 -64 0
v -480 -80 0
v -496 -80 0
v -496 -64 0
v -480 -64 0
v -496 -80 0
v -512 -80 0
v -512 -64 0
v -496 -64 0
v -512 -80 0
v -528 -80 0
v -528 -64 0
v -512 -64 0
v -1168 -80 0
v -1184 -80 0
v -1184 -64 0
v -1168 -64 0
v -1184 -80 0
v -1200 -80 0
v -1200 -64 0
v -1184 -64 0
v -464 -96 0
v -480 -96 0
v -480 -80 0
v -464 -80 0
v -480 -96 0
v -496 -96 0
v -496 -80 0
v -480 -80 0
v -496 -96 0
v -512 -96 0
v -512 -80 0
v -496 -80 0
v -512 -96 0
v -528 -96 0
v -528 -80 0
v -512 -80 0
v -1168 -96 0
v -1184 -96 0
v -1184 -80 0
v -1168 -80 0
v -1184 -96 0
v -1200 -96 0
v -1200 -80 0
v -1184 -80 0
v -464 -112 0
v -480 -112 0
v -480 -96 0
v -464 -96 0
v -480 -112 0
v -496 -112 0
v -496 -96 0
v -480 -96 0
v -496 -112 0
v -512 -112 0
v -512 -96 0
v -496 -96 0
v -512 -112 0
v -528 -112 0
v -528 -96 0
v -512 -96 0
v -1168 -112 0
v -1184 -112 0
v -1184 -96 0
v -1168 -96 0
v -1184 -112 0
v -1200 -112 0
v -1200 -96 0
v -1184 -96 0
v -464 -128 0
v -480 -128 0
v -480 -112 0
v -464 -112 0
v -480 -128 0
v -496 -128 0
v -496 -112 0
v -480 -112 0
v -496 -128 0
v -512 -128 0
v -512 -112 0
v -496 -112 0
v -512 -128 0
v -528 -128 0
v -528 -112 0
v -512 -112 0
v -1168 -128 0
v -1184 -128 0
v -1184 -112 0
v -1168 -112 0
v -1184 -128 0
v -1200 -128 0
v -1200 -112 0
v -1184 -112 0
v -464 -144 0
v -480 -144 0
v -480 -128 0
v -464 -128 0
v -480 -144 0
v -496 -144 0
v -496 -128 0
v -480 -128 0
v -496 -144 0
v -512 -144 0
v -512 -128 0
v -496 -128 0
v -512 -144 0
v -528 -144 0
v -528 -128 0
v -512 -128 0
v -1168 -144 0
v -1184 -144 0
v -1184 -128 0
v -1168 -128 0
v -1184 -144 0
v -1200 -144 0
v -1200 -128 0
v -1184 -128 0
v -464 -160 0
v -480 -160 0
v -480 -144 0
v -464 -144 0
v -480 -160 0
v -496 -160 0
v -496 -144 0
v -480 -144 0
v -496 -160 0
v -512 -160 0
v -512 -144 0
v -496 -144 0
v -512 -160 0
v -528 -160 0
v -528 -144 0
v -512 -144 0
v -1168 -160 0
v -1184 -160 0
v -1184 -144 0
v -1168 -144 0
v -1184 -160 0
v -1200 -160 0
v -1200 -144 0
v -1184 -144 0
v -464 -176 0
v -480 -176 0
v -480 -160 0
v -464 -160 0
v -480 -176 0
v -496 -176 0
v -496 -160 0
v -480 -160 0
v -496 -176 0
v -512 -176 0
v -512 -160 0
v -496 -160 0
v -512 -176 0
v -528 -176 0
v -528 -160 0
v -512 -160 0
v -1168 -176 0
v -1184 -176 0
v -1184 -160 0
v -1168 -160 0
v -1184 -176 0
v -1200 -176 0
v -1200 -160 0
v -1184 -160 0
v -464 -192 0
v -480 -192 0
v -480 -176 0
v -464 -176 0
v -480 -192 0
v -496 -192 0
v -496 -176 0
v -480 -176 0
v -496 -192 0
v -512 -192 0
v -512 -176 0
v -496 -176 0
v -512 -192 0
v -528 -192 0
v -528 -176 0
v -512 -176 0
v -1136 -192 0
v -1152 -192 0
v -1152 -176 0
v -1136 -176 0
v -1152 -192 0
v -1168 -192 0
v -1168 -176 0
v -1152 -176 0
v -1168 -192 0
v -1184 -192 0
v -1184 -176 0
v -1168 -176 0
v -1184 -192 0
v -1200 -192 0
v -1200 -176 0
v -1184 -176 0
v -464 -208 0
v -480 -208 0
v -480 -192 0
v -464 -192 0
v -480 -208 0
v -496 -208 0
v -496 -192 0
v -480 -192 0
v -496 -208 0
v -512 -208 0
v -512 -192 0
v -496 -192 0
v -512 -208 0
v -528 -208 0
v -528 -192 0
v -512 -192 0
v -1104 -208 0
v -1120 -208 0
v -1120 -192 0
v -1104 -192 0
v -1120 -208 0
v -1136 -208 0
v -1136 -192 0
v -1120 -192 0
v -1136 -208 0
v -1152 -208 0
v -1152 -192 0
v -1136 -192 0
v -1152 -208 0
v -1168 -208 0
v -1168 -192 0
v -1152 -192 0
v -1168 -208 0
v -1184 -208 0
v -1184 -192 0
v -1168 -192 0
v -1184 -208 0
v -1200 -208 0
v -1200 -192 0
v -1184 -192 0
v -464 -224 0
v -480 -224 0
v -480 -208 0
v -464 -208 0
v -480 -224 0
v -496 -224 0
v -496 -208 0
v -480 -208 0
v -496 -224 0
v -512 -224 0
v -512 -208 0
v -496 -208 0
v -512 -224 0
v -528 -224 0
v -528 -208 0
v -512 -208 0
v -528 -224 0
v -544 -224 0
v -544 -208 0
v -528 -208 0
v -544 -224 0
v -560 -224 0
v -560 -208 0
v -544 -208 0
v -560 -224 0
v -576 -224 0
v -576 -208 0
v -560 -208 0
v -576 -224 0
v -592 -224 0
v -592 -208 0
v -576 -208 0
v -592 -224 0
v -608 -224 0
v -608 -208 0
v -592 -208 0
v -608 -224 0
v -624 -224 0
v -624 -208 0
v -608 -208 0
v -624 -224 0
v -640 -224 0
v -640 -208 0
v -624 -208 0
v -640 -224 0
v -656 -224 0
v -656 -208 0
v -640 -208 0
v -656 -224 0
v -672 -224 0
v -672 -208 0
v -656 -208 0
v -672 -224 0
v -688 -224 0
v -688 -208 0
v -672 -208 0
v -688 -224 0
v -704 -224 0
v -704 -208 0
v -688 -208 0
v -704 -224 0
v -720 -224 0
v -720 -208 0
v -704 -208 0
v -720 -224 0
v -736 -224 0
v -736 -208 0
v -720 -208 0
v -736 -224 0
v -752 -224 0
v -752 -208 0
v -736 -208 0
v -752 -224 0
v -768 -224 0
v -768 -208 0
v -752 -208 0
v -768 -224 0
v -784 -224 0
v -784 -208 0
v -768 -208 0
v -784 -224 0
v -800 -224 0
v -800 -208 0
v -784 -208 0
v -800 -224 0
v -816 -224 0
v -816 -208 0
v -800 -208 0
v -816 -224 0
v -832 -224 0
v -832 -208 0
v -816 -208 0
v -832 -224 0
v -848 -224 0
v -848 -208 0
v -832 -208 0
v -848 -224 0
v -864 -224 0
v -864 -208 0
v -848 -208 0
v -864 -224 0
v -880 -224 0
v -880 -208 0
v -864 -208 0
v -880 -224 0
v -896 -224 0
v -896 -208 0
v -880 -208 0
v -896 -224 0
v -912 -224 0
v -912 -208 0
v -896 -208 0
v -912 -224 0
v -928 -224 0
v -928 -208 0
v -912 -208 0
v -928 -224 0
v -944 -224 0
v -944 -208 0
v -928 -208 0
v -944 -224 0
v -960 -224 0
v -960 -208 0
v -944 -208 0
v -960 -224 0
v -976 -224 0
v -976 -208 0
v -960 -208 0
v -976 -224 0
v -992 -224 0
v -992 -208 0
v -976 -208 0
v -992 -224 0
v -1008 -224 0
v -1008 -208 0
v -992 -208 0
v -1008 -224 0
v -1024 -224 0
v -1024 -208 0
v -1008 -208 0
v -1024 -224 0
v -1040 -224 0
v -1040 -208 0
v -1024 -208 0
v -1040 -224 0
v -1056 -224 0
v -1056 -208 0
v -1040 -208 0
v -1056 -224 0
v -1072 -224 0
v -1072 -208 0
v -1056 -208 0
v -1072 -224 0
v -1088 -224 0
v -1088 -208 0
v -1072 -208 0
v -1088 -224 0
v -1104 -224 0
v -1104 -208 0
v -1088 -208 0
v -1104 -224 0
v -1120 -224 0
v -1120 -208 0
v -1104 -208 0
v -1120 -224 0
v -1136 -224 0
v -1136 -208 0
v -1120 -208 0
v -1136 -224 0
v -1152 -224 0
v -1152 -208 0
v -1136 -208 0
v -1152 -224 0
v -1168 -224 0
v -1168 -208 0
v -1152 -208 0
v -1168 -224 0
v -1184 -224 0
v -1184 -208 0
v -1168 -208 0
v -1184 -224 0
v -1200 -224 0
v -1200 -208 0
v -1184 -208 0
v -464 -240 0
v -480 -240 0
v -480 -224 0
v -464 -224 0
v -480 -240 0
v -496 -240 0
v -496 -224 0
v -480 -224 0
v -496 -240 0
v -512 -240 0
v -512 -224 0
v -496 -224 0
v -512 -240 0
v -528 -240 0
v -528 -224 0
v -512 -224 0
v -528 -240 0
v -544 -240 0
v -544 -224 0
v -528 -224 0
v -544 -240 0
v -560 -240 0
v -560 -224 0
v -544 -224 0
v -560 -240 0
v -576 -240 0
v -576 -224 0
v -560 -224 0
v -576 -240 0
v -592 -240 0
v -592 -224 0
v -576 -224 0
v -592 -240 0
v -608 -240 0
v -608 -224 0
v -592 -224 0
v -608 -240 0
v -624 -240 0
v -624 -224 0
v -608 -224 0
v -624 -240 0
v -640 -240 0
v -640 -224 0
v -624 -224 0
v -640 -240 0
v -656 -240 0
v -656 -224 0
v -640 -224 0
v -656 -240 0
v -672 -240 0
v -672 -224 0
v -656 -224 0
v -672 -240 0
v -688 -240 0
v -688 -224 0
v -672 -224 0
v -688 -240 0
v -704 -240 0
v -704 -224 0
v -688 -224 0
v -704 -240 0
v -720 -240 0
v -720 -224 0
v -704 -224 0
v -720 -240 0
v -736 -240 0
v -736 -224 0
v -720 -224 0
v -736 -240 0
v -752 -240 0
v -752 -224 0
v -736 -224 0
v -752 -240 0
v -768 -240 0
v -768 -224 0
v -752 -224 0
v -768 -240 0
v -784 -240 0
v -784 -224 0
v -768 -224 0
v -784 -240 0
v -800 -240 0
v -800 -224 0
v -784 -224 0
v -800 -240 0
v -816 -240 0
v -816 -224 0
v -800 -224 0
v -816 -240 0
v -832 -240 0
v -832 -224 0
v -816 -224 0
v -832 -240 0
v -848 -240 0
v -848 -224 0
v -832 -224 0
v -848 -240 0
v -864 -240 0
v -864 -224 0
v -848 -224 0
v -864 -240 0
v -880 -240 0
v -880 -224 0
v -864 -224 0
v -880 -240 0
v -896 -240 0
v -896 -224 0
v -880 -224 0
v -896 -240 0
v -912 -240 0
v -912 -224 0
v -896 -224 0
v -912 -240 0
v -928 -240 0
v -928 -224 0
v -912 -224 0
v -928 -240 0
v -944 -240 0
v -944 -224 0
v -928 -224 0
v -944 -240 0
v -960 -240 0
v -960 -224 0
v -944 -224 0
v -960 -240 0
v -976 -240 0
v -976 -224 0
v -960 -224 0
v -976 -240 0
v -992 -240 0
v -992 -224 0
v -976 -224 0
v -992 -240 0
v -1008 -240 0
v -1008 -224 0
v -992 -224 0
v -1008 -240 0
v -1024 -240 0
v -1024 -224 0
v -1008 -224 0
v -1024 -240 0
v -1040 -240 0
v -1040 -224 0
v -1024 -224 0
v -1040 -240 0
v -1056 -240 0
v -1056 -224 0
v -1040 -224 0
v -1056 -240 0
v -1072 -240 0
v -1072 -224 0
v -1056 -224 0
v -1072 -240 0
v -1088 -240 0
v -1088 -224 0
v -1072 -224 0
v -1088 -240 0
v -1104 -240 0
v -1104 -224 0
v -1088 -224 0
v -1104 -240 0
v -1120 -240 0
v -1120 -224 0
v -1104 -224 0
v -1120 -240 0
v -1136 -240 0
v -1136 -224 0
v -1120 -224 0
v -1136 -240 0
v -1152 -240 0
v -1152 -224 0
v -1136 -224 0
v -1152 -240 0
v -1168 -240 0
v -1168 -224 0
v -1152 -224 0
v -1168 -240 0
v -1184 -240 0
v -1184 -224 0
v -1168 -224 0
v -1184 -240 0
v -1200 -240 0
v -1200 -224 0
v -1184 -224 0

# Texture cooridinates (Count = 18)
vt 0.1666667 0.6666666
vt 0.3333333 0.6666666
vt 0.3333333 0.8333333
vt 0.1666667 0.8333333
vt 0.5 0.6666666
vt 0.5 0.8333333
vt 0 0.6666666
vt 0 0.8333333
vt 0.5 0.5
vt 0.6666667 0.5
vt 0.6666667 0.6666666
vt 0.3333333 1
vt 0.1666667 1
vt 0 1
vt 0.5 0.3333333
vt 0.6666667 0.3333333
vt 0.8333333 0.3333333
vt 0.8333333 0.5

# Normal
vn 0 0 -1

# Mesh description
g Map_mesh_0001

# Faces
f 1/1/1 2/2/1 3/3/1 4/4/1
f 5/1/1 6/2/1 7/3/1 8/4/1
f 9/1/1 10/2/1 11/3/1 12/4/1
f 13/2/1 14/5/1 15/6/1 16/3/1
f 17/7/1 18/1/1 19/4/1 20/8/1
f 21/1/1 22/2/1 23/3/1 24/4/1
f 25/1/1 26/2/1 27/3/1 28/4/1
f 29/1/1 30/2/1 31/3/1 32/4/1
f 33/1/1 34/2/1 35/3/1 36/4/1
f 37/2/1 38/5/1 39/6/1 40/3/1
f 41/7/1 42/1/1 43/4/1 44/8/1
f 45/1/1 46/2/1 47/3/1 48/4/1
f 49/1/1 50/2/1 51/3/1 52/4/1
f 53/1/1 54/2/1 55/3/1 56/4/1
f 57/1/1 58/2/1 59/3/1 60/4/1
f 61/2/1 62/5/1 63/6/1 64/3/1
f 65/7/1 66/1/1 67/4/1 68/8/1
f 69/1/1 70/2/1 71/3/1 72/4/1
f 73/1/1 74/2/1 75/3/1 76/4/1
f 77/1/1 78/2/1 79/3/1 80/4/1
f 81/1/1 82/2/1 83/3/1 84/4/1
f 85/2/1 86/5/1 87/6/1 88/3/1
f 89/7/1 90/1/1 91/4/1 92/8/1
f 93/1/1 94/2/1 95/3/1 96/4/1
f 97/1/1 98/2/1 99/3/1 100/4/1
f 101/1/1 102/2/1 103/3/1 104/4/1
f 105/1/1 106/2/1 107/3/1 108/4/1
f 109/2/1 110/5/1 111/6/1 112/3/1
f 113/7/1 114/1/1 115/4/1 116/8/1
f 117/1/1 118/2/1 119/3/1 120/4/1
f 121/1/1 122/2/1 123/3/1 124/4/1
f 125/1/1 126/2/1 127/3/1 128/4/1
f 129/1/1 130/2/1 131/3/1 132/4/1
f 133/2/1 134/5/1 135/6/1 136/3/1
f 137/7/1 138/1/1 139/4/1 140/8/1
f 141/1/1 142/2/1 143/3/1 144/4/1
f 145/1/1 146/2/1 147/3/1 148/4/1
f 149/1/1 150/2/1 151/3/1 152/4/1
f 153/1/1 154/2/1 155/3/1 156/4/1
f 157/2/1 158/5/1 159/6/1 160/3/1
f 161/7/1 162/1/1 163/4/1 164/8/1
f 165/1/1 166/2/1 167/3/1 168/4/1
f 169/1/1 170/2/1 171/3/1 172/4/1
f 173/1/1 174/2/1 175/3/1 176/4/1
f 177/1/1 178/2/1 179/3/1 180/4/1
f 181/2/1 182/5/1 183/6/1 184/3/1
f 185/7/1 186/1/1 187/4/1 188/8/1
f 189/1/1 190/2/1 191/3/1 192/4/1
f 193/1/1 194/2/1 195/3/1 196/4/1
f 197/1/1 198/2/1 199/3/1 200/4/1
f 201/1/1 202/2/1 203/3/1 204/4/1
f 205/2/1 206/5/1 207/6/1 208/3/1
f 209/7/1 210/1/1 211/4/1 212/8/1
f 213/1/1 214/2/1 215/3/1 216/4/1
f 217/1/1 218/2/1 219/3/1 220/4/1
f 221/1/1 222/2/1 223/3/1 224/4/1
f 225/1/1 226/2/1 227/3/1 228/4/1
f 229/2/1 230/5/1 231/6/1 232/3/1
f 233/9/1 234/10/1 235/11/1 236/5/1
f 237/4/1 238/3/1 239/12/1 240/13/1
f 241/1/1 242/2/1 243/3/1 244/4/1
f 245/1/1 246/2/1 247/3/1 248/4/1
f 249/1/1 250/2/1 251/3/1 252/4/1
f 253/1/1 254/2/1 255/3/1 256/4/1
f 257/1/1 258/2/1 259/3/1 260/4/1
f 261/2/1 262/5/1 263/6/1 264/3/1
f 265/8/1 266/4/1 267/13/1 268/14/1
f 269/4/1 270/3/1 271/12/1 272/13/1
f 273/15/1 274/16/1 275/10/1 276/9/1
f 277/1/1 278/2/1 279/3/1 280/4/1
f 281/1/1 282/2/1 283/3/1 284/4/1
f 285/1/1 286/2/1 287/3/1 288/4/1
f 289/1/1 290/2/1 291/3/1 292/4/1
f 293/1/1 294/2/1 295/3/1 296/4/1
f 297/1/1 298/2/1 299/3/1 300/4/1
f 301/16/1 302/17/1 303/18/1 304/10/1
f 305/4/1 306/3/1 307/12/1 308/13/1
f 309/4/1 310/3/1 311/12/1 312/13/1
f 313/4/1 314/3/1 315/12/1 316/13/1
f 317/4/1 318/3/1 319/12/1 320/13/1
f 321/4/1 322/3/1 323/12/1 324/13/1
f 325/4/1 326/3/1 327/12/1 328/13/1
f 329/4/1 330/3/1 331/12/1 332/13/1
f 333/4/1 334/3/1 335/12/1 336/13/1
f 337/4/1 338/3/1 339/12/1 340/13/1
f 341/4/1 342/3/1 343/12/1 344/13/1
f 345/4/1 346/3/1 347/12/1 348/13/1
f 349/4/1 350/3/1 351/12/1 352/13/1
f 353/4/1 354/3/1 355/12/1 356/13/1
f 357/4/1 358/3/1 359/12/1 360/13/1
f 361/4/1 362/3/1 363/12/1 364/13/1
f 365/4/1 366/3/1 367/12/1 368/13/1
f 369/4/1 370/3/1 371/12/1 372/13/1
f 373/4/1 374/3/1 375/12/1 376/13/1
f 377/4/1 378/3/1 379/12/1 380/13/1
f 381/4/1 382/3/1 383/12/1 384/13/1
f 385/4/1 386/3/1 387/12/1 388/13/1
f 389/4/1 390/3/1 391/12/1 392/13/1
f 393/4/1 394/3/1 395/12/1 396/13/1
f 397/4/1 398/3/1 399/12/1 400/13/1
f 401/4/1 402/3/1 403/12/1 404/13/1
f 405/4/1 406/3/1 407/12/1 408/13/1
f 409/4/1 410/3/1 411/12/1 412/13/1
f 413/4/1 414/3/1 415/12/1 416/13/1
f 417/4/1 418/3/1 419/12/1 420/13/1
f 421/4/1 422/3/1 423/12/1 424/13/1
f 425/4/1 426/3/1 427/12/1 428/13/1
f 429/4/1 430/3/1 431/12/1 432/13/1
f 433/4/1 434/3/1 435/12/1 436/13/1
f 437/4/1 438/3/1 439/12/1 440/13/1
f 441/4/1 442/3/1 443/12/1 444/13/1
f 445/4/1 446/3/1 447/12/1 448/13/1
f 449/15/1 450/16/1 451/10/1 452/9/1
f 453/1/1 454/2/1 455/3/1 456/4/1
f 457/1/1 458/2/1 459/3/1 460/4/1
f 461/1/1 462/2/1 463/3/1 464/4/1
f 465/1/1 466/2/1 467/3/1 468/4/1
f 469/1/1 470/2/1 471/3/1 472/4/1
f 473/1/1 474/2/1 475/3/1 476/4/1
f 477/1/1 478/2/1 479/3/1 480/4/1
f 481/1/1 482/2/1 483/3/1 484/4/1
f 485/1/1 486/2/1 487/3/1 488/4/1
f 489/1/1 490/2/1 491/3/1 492/4/1
f 493/1/1 494/2/1 495/3/1 496/4/1
f 497/1/1 498/2/1 499/3/1 500/4/1
f 501/1/1 502/2/1 503/3/1 504/4/1
f 505/1/1 506/2/1 507/3/1 508/4/1
f 509/1/1 510/2/1 511/3/1 512/4/1
f 513/1/1 514/2/1 515/3/1 516/4/1
f 517/1/1 518/2/1 519/3/1 520/4/1
f 521/1/1 522/2/1 523/3/1 524/4/1
f 525/1/1 526/2/1 527/3/1 528/4/1
f 529/1/1 530/2/1 531/3/1 532/4/1
f 533/1/1 534/2/1 535/3/1 536/4/1
f 537/1/1 538/2/1 539/3/1 540/4/1
f 541/1/1 542/2/1 543/3/1 544/4/1
f 545/1/1 546/2/1 547/3/1 548/4/1
f 549/1/1 550/2/1 551/3/1 552/4/1
f 553/1/1 554/2/1 555/3/1 556/4/1
f 557/1/1 558/2/1 559/3/1 560/4/1
f 561/1/1 562/2/1 563/3/1 564/4/1
f 565/1/1 566/2/1 567/3/1 568/4/1
f 569/1/1 570/2/1 571/3/1 572/4/1
f 573/1/1 574/2/1 575/3/1 576/4/1
f 577/1/1 578/2/1 579/3/1 580/4/1
f 581/1/1 582/2/1 583/3/1 584/4/1
f 585/1/1 586/2/1 587/3/1 588/4/1
f 589/1/1 590/2/1 591/3/1 592/4/1
f 593/1/1 594/2/1 595/3/1 596/4/1
f 597/1/1 598/2/1 599/3/1 600/4/1
f 601/1/1 602/2/1 603/3/1 604/4/1
f 605/1/1 606/2/1 607/3/1 608/4/1
f 609/1/1 610/2/1 611/3/1 612/4/1
f 613/1/1 614/2/1 615/3/1 616/4/1
f 617/1/1 618/2/1 619/3/1 620/4/1
f 621/1/1 622/2/1 623/3/1 624/4/1
f 625/1/1 626/2/1 627/3/1 628/4/1
f 629/1/1 630/2/1 631/3/1 632/4/1
f 633/1/1 634/2/1 635/3/1 636/4/1
f 637/1/1 638/2/1 639/3/1 640/4/1
f 641/1/1 642/2/1 643/3/1 644/4/1
f 645/1/1 646/2/1 647/3/1 648/4/1
f 649/1/1 650/2/1 651/3/1 652/4/1
f 653/1/1 654/2/1 655/3/1 656/4/1

